#N canvas 239 199 1129 673 12;
#X obj 363 382 line~;
#X obj 367 292 pack float float float;
#X msg 366 326 \$1 \, \$2 \$3;
#X obj 370 224 trigger float float;
#X obj 501 252 +;
#X floatatom 554 156 5 0 0 0 - - - 0;
#X text 640 112 grain duration in ms;
#X text 340 119 start point in samples;
#X obj 648 142 loadbang;
#X obj 648 165 samplerate~;
#X obj 568 219 * 44.1;
#X obj 647 193 / 1000;
#X text 732 153 get sample rate;
#X obj 374 96 inlet;
#X obj 367 429 outlet~;
#X text 573 235 duration in samples;
#X obj 553 95 receive duration_ms;
#X obj 558 283 send duration_samples;
#X connect 0 0 14 0;
#X connect 1 0 2 0;
#X connect 2 0 0 0;
#X connect 3 0 1 0;
#X connect 3 1 4 0;
#X connect 4 0 1 1;
#X connect 4 0 17 0;
#X connect 5 0 1 2;
#X connect 5 0 10 0;
#X connect 8 0 9 0;
#X connect 9 0 11 0;
#X connect 10 0 4 1;
#X connect 11 0 10 1;
#X connect 13 0 3 0;
#X connect 16 0 5 0;
