#N canvas 187 25 1253 847 12;
#X obj 644 139 soundfiler;
#X floatatom 700 167 10 0 0 1 file\ duration\ in\ samples - - 0;
#X obj 171 59 tgl 19 0 empty empty empty 0 -10 0 12 #fcfcfc #000000 #000000 0 1;
#X floatatom 307 69 5 0 0 1 grain\ duration\ in\ ms - - 0;
#X obj 228 134 metro \$1;
#X text 246 154 loop;
#X obj 678 80 array define a1;
#X msg 644 114 read -resize wav/monolithcold.wav a1;
#X obj 350 116 send duration_ms;
#X obj 755 223 samplerate~;
#X obj 639 229 expr $f2 / $f1;
#X obj 752 195 loadbang;
#X floatatom 650 263 10 0 0 1 normal\ playback\ rate\ coef - - 0;
#X obj 725 196 bng 19 250 50 0 empty empty empty 0 -10 0 12 #fcfcfc #000000 #000000;
#X obj 217 278 grain;
#X floatatom 133 223 10 0 0 2 start\ point - - 0;
#X obj 245 748 output~;
#X obj 251 313 tabread4~ a1;
#X obj 276 283 *~;
#X obj 251 241 phasor~;
#X floatatom 367 213 10 0 0 2 playback\ rate\ (non-normalized) - - 0;
#X obj 309 255 receive duration_samples;
#X obj 433 711 writesf~;
#X msg 521 681 start;
#X msg 574 688 stop;
#X obj 247 473 hip~;
#X floatatom 281 447 5 0 0 2 high\ pass - - 0;
#X obj 129 577 delread~ buffer;
#X floatatom 118 540 10 0 0 2 delay\ duration - - 0;
#X floatatom 329 555 5 0 0 1 Q - - 0;
#X floatatom 329 504 10 0 0 1 low\ pass\ frequency - - 0;
#X obj 248 563 vcf~ 1;
#X obj 18 783 send~ feedback;
#X obj 734 376 soundfiler;
#X obj 783 313 array define a2;
#X msg 734 349 read -resize wav/brainscorcher.wav a2;
#X floatatom 734 402 10 0 0 0 - - - 0;
#X obj 123 384 tabplay~ a2;
#X obj 123 359 bng 19 250 50 0 empty empty empty 0 -10 0 12 #fcfcfc #000000 #000000;
#X obj 261 369 phasemod;
#X obj 20 756 clip~ -1 1;
#X obj 292 532 sig~ \$1;
#X obj 273 16 loadbang;
#X obj 602 85 loadbang;
#X obj 705 317 loadbang;
#X msg 299 47 100;
#X obj 319 148 loadbang;
#X obj 343 451 loadbang;
#X msg 334 477 7777;
#X obj 79 479 loadbang;
#X obj 353 611 delwrite~ buffer 5000;
#X obj 382 583 receive~ feedback;
#X msg 91 506 0;
#X msg 446 654 open output/test12.wav;
#X obj 132 409 *~ 3;
#X obj 1026 75 notein;
#X floatatom 1002 106 5 0 0 3 note - - 0;
#X floatatom 1046 106 5 0 0 3 velocity - - 0;
#X floatatom 1103 106 5 0 0 3 channel - - 0;
#X obj 1023 152 ctlin;
#X floatatom 993 180 5 0 0 3 value - - 0;
#X floatatom 1038 180 5 0 0 3 ctlr - - 0;
#X floatatom 1086 180 5 0 0 3 channel - - 0;
#X obj 1019 239 sysexin;
#X floatatom 1019 268 4 0 127 0 - - - 0;
#X floatatom 1065 268 4 0 127 0 - - - 0;
#X obj 93 646 ctlin 20 1;
#X obj 93 669 / 127;
#X obj 93 693 * 2;
#X floatatom 102 720 5 0 0 0 - - - 0;
#X text 132 668 normalize;
#X text 121 694 max value;
#X msg 330 176 0.2;
#X text 978 44 input test;
#X obj 475 808 tabwrite~ output-array;
#N canvas 0 22 450 278 (subpatch) 0;
#X array output-array 2000 float 0;
#X coords 0 1 1999 -1 200 140 1;
#X restore 731 485 graph;
#X obj 489 779 bng 19 250 50 0 empty empty empty 0 -10 0 12 #fcfcfc #000000 #000000;
#X obj 509 720 tgl 19 0 empty empty display 25 6 0 12 #fcfcfc #000000 #000000 0 1;
#X obj 24 726 *~;
#X obj 492 753 metro 1000;
#X text 783 676 todo: ctlin mapping envelope?;
#X connect 0 0 1 0;
#X connect 0 0 10 0;
#X connect 2 0 19 0;
#X connect 2 0 4 0;
#X connect 3 0 8 0;
#X connect 3 0 4 1;
#X connect 4 0 14 0;
#X connect 7 0 0 0;
#X connect 9 0 10 1;
#X connect 10 0 12 0;
#X connect 11 0 9 0;
#X connect 13 0 9 0;
#X connect 14 0 17 0;
#X connect 15 0 14 0;
#X connect 17 0 39 0;
#X connect 18 0 17 0;
#X connect 19 0 18 0;
#X connect 20 0 19 0;
#X connect 21 0 18 1;
#X connect 23 0 22 0;
#X connect 24 0 22 0;
#X connect 25 0 31 0;
#X connect 26 0 25 1;
#X connect 27 0 16 0;
#X connect 27 0 16 1;
#X connect 27 0 22 0;
#X connect 27 0 74 0;
#X connect 27 0 78 0;
#X connect 28 0 27 0;
#X connect 29 0 31 2;
#X connect 30 0 41 0;
#X connect 31 0 50 0;
#X connect 31 1 16 1;
#X connect 31 1 16 0;
#X connect 31 1 22 0;
#X connect 31 1 74 0;
#X connect 31 1 50 0;
#X connect 33 0 36 0;
#X connect 35 0 33 0;
#X connect 37 0 54 0;
#X connect 38 0 37 0;
#X connect 39 0 25 0;
#X connect 40 0 32 0;
#X connect 41 0 31 1;
#X connect 42 0 45 0;
#X connect 43 0 7 0;
#X connect 44 0 35 0;
#X connect 45 0 3 0;
#X connect 46 0 72 0;
#X connect 47 0 48 0;
#X connect 48 0 30 0;
#X connect 49 0 52 0;
#X connect 51 0 50 0;
#X connect 52 0 28 0;
#X connect 53 0 22 0;
#X connect 54 0 25 0;
#X connect 55 0 56 0;
#X connect 55 1 57 0;
#X connect 55 2 58 0;
#X connect 59 0 60 0;
#X connect 59 1 61 0;
#X connect 59 2 62 0;
#X connect 63 0 64 0;
#X connect 63 1 65 0;
#X connect 66 0 67 0;
#X connect 67 0 68 0;
#X connect 68 0 69 0;
#X connect 68 0 78 1;
#X connect 72 0 20 0;
#X connect 76 0 74 0;
#X connect 77 0 79 0;
#X connect 78 0 40 0;
#X connect 79 0 76 0;
