#N canvas 352 104 1025 730 12;
#X obj 638 86 soundfiler;
#X floatatom 694 114 10 0 0 1 file\ duration\ in\ samples - - 0;
#X obj 165 38 tgl 19 0 empty empty empty 0 -10 0 12 #fcfcfc #000000 #000000 0 1;
#X floatatom 301 48 5 0 0 1 grain\ duration\ in\ ms - - 0;
#X obj 222 113 metro \$1;
#X text 240 133 loop;
#X obj 622 29 array define a1;
#X obj 1199 545 soundfiler;
#X floatatom 1200 567 10 0 0 0 - - - 0;
#X obj 937 599 grain;
#X floatatom 936 564 5 0 0 0 - - - 0;
#X obj 928 483 tgl 19 0 empty empty empty 0 -10 0 12 #fcfcfc #000000 #000000 0 1;
#X floatatom 1016 486 5 0 0 0 - - - 0;
#X obj 933 524 metro \$1;
#X text 1052 486 duration in ms;
#X text 983 544 loop;
#X obj 1070 542 send duration_ms;
#X obj 1185 478 array define a2;
#X obj 921 637 tabread4~ a2;
#X msg 1201 510 read -resize wav/kashgarbangbang.wav a2;
#X msg 638 61 read -resize wav/monolithcold.wav a1;
#X obj 344 95 send duration_ms;
#X obj 749 170 samplerate~;
#X obj 623 183 expr $f2 / $f1;
#X obj 746 142 loadbang;
#X floatatom 634 217 10 0 0 1 normal\ playback\ rate\ coef - - 0;
#X obj 770 139 bng 19 250 50 0 empty empty empty 0 -10 0 12 #fcfcfc #000000 #000000;
#X obj 207 284 grain;
#X floatatom 129 205 10 0 0 2 start\ point - - 0;
#X obj 271 631 output~;
#X obj 241 333 tabread4~ a1;
#X obj 283 278 *~;
#X obj 279 226 phasor~;
#X floatatom 377 181 10 0 0 2 playback\ rate\ (non-normalized) - - 0;
#X obj 316 250 receive duration_samples;
#X obj 449 602 writesf~;
#X msg 537 572 start;
#X msg 602 579 stop;
#X obj 242 365 hip~;
#X floatatom 412 326 10 0 0 2 high\ pass\ frequency - - 0;
#X obj 116 501 delread~ buffer;
#X floatatom 105 464 10 0 0 2 delay - - 0;
#X obj 280 408 delwrite~ buffer 5000;
#X floatatom 323 474 5 0 0 1 Q - - 0;
#X obj 272 478 sig~;
#X floatatom 287 448 5 0 0 1 resonant\ frequency - - 0;
#X obj 255 508 vcf~ 1;
#X msg 462 545 open output/test4.wav;
#X obj 69 645 *~;
#X obj 66 674 send~ feedback;
#X obj 105 600 hsl 77 19 0 1 0 0 empty empty feedback\ amount -2 -10 0 12 #fcfcfc #000000 #000000 0 1;
#X obj 332 379 receive~ feedback;
#X connect 0 0 1 0;
#X connect 0 0 23 0;
#X connect 2 0 32 0;
#X connect 2 0 4 0;
#X connect 3 0 21 0;
#X connect 3 0 4 1;
#X connect 4 0 27 0;
#X connect 7 0 8 0;
#X connect 9 0 18 0;
#X connect 10 0 9 0;
#X connect 11 0 13 0;
#X connect 12 0 13 1;
#X connect 12 0 16 0;
#X connect 13 0 10 0;
#X connect 19 0 7 0;
#X connect 20 0 0 0;
#X connect 22 0 23 1;
#X connect 23 0 25 0;
#X connect 24 0 22 0;
#X connect 26 0 22 0;
#X connect 27 0 30 0;
#X connect 28 0 27 0;
#X connect 30 0 38 0;
#X connect 31 0 30 0;
#X connect 32 0 31 0;
#X connect 33 0 32 0;
#X connect 34 0 31 1;
#X connect 36 0 35 0;
#X connect 37 0 35 0;
#X connect 38 0 42 0;
#X connect 38 0 46 0;
#X connect 39 0 38 1;
#X connect 40 0 29 0;
#X connect 40 0 29 1;
#X connect 40 0 35 0;
#X connect 40 0 48 0;
#X connect 41 0 40 0;
#X connect 43 0 46 2;
#X connect 44 0 46 1;
#X connect 45 0 44 0;
#X connect 46 1 29 1;
#X connect 46 1 29 0;
#X connect 46 1 35 0;
#X connect 47 0 35 0;
#X connect 48 0 49 0;
#X connect 50 0 48 1;
#X connect 51 0 42 0;
