#N canvas 222 86 1193 747 12;
#X obj 670 136 soundfiler;
#X floatatom 671 158 10 0 0 0 - - - 0;
#X obj 76 499 grain;
#X floatatom 73 470 5 0 0 0 - - - 0;
#X obj 27 35 tgl 19 0 empty empty empty 0 -10 0 12 #fcfcfc #000000 #000000 0 1;
#X floatatom 181 59 5 0 0 0 - - - 0;
#X obj 84 110 metro \$1;
#X text 217 59 duration in ms;
#X text 102 130 loop;
#X obj 91 622 output~;
#X obj 656 69 array define a1;
#X obj 102 566 tabread4~ a1;
#X obj 878 454 soundfiler;
#X floatatom 879 476 10 0 0 0 - - - 0;
#X obj 616 508 grain;
#X floatatom 615 473 5 0 0 0 - - - 0;
#X obj 607 392 tgl 19 0 empty empty empty 0 -10 0 12 #fcfcfc #000000 #000000 0 1;
#X floatatom 695 395 5 0 0 0 - - - 0;
#X obj 612 433 metro \$1;
#X text 731 395 duration in ms;
#X text 662 453 loop;
#X obj 749 451 send duration_ms;
#X obj 589 602 output~;
#X obj 864 387 array define a2;
#X obj 600 546 tabread4~ a2;
#X obj 163 416 *~;
#X obj 135 383 phasor~;
#X msg 672 101 read -resize wav/monolithcold.wav a1;
#X floatatom 148 338 5 0 0 0 - - - 0;
#X text 182 335 playback speed (non-normalized);
#X obj 206 92 send duration_ms;
#X obj 215 386 receive duration_samples;
#X obj 429 82 bng 19 250 50 0 empty empty empty 0 -10 0 12 #fcfcfc #000000 #000000;
#X obj 447 108 samplerate~;
#X obj 362 145 expr $f2 / $f1;
#X obj 453 82 loadbang;
#X msg 880 419 read -resize wav/test.wav a2;
#X connect 0 0 1 0;
#X connect 2 0 11 0;
#X connect 3 0 2 0;
#X connect 4 0 6 0;
#X connect 4 0 26 0;
#X connect 5 0 30 0;
#X connect 5 0 6 1;
#X connect 6 0 26 0;
#X connect 11 0 9 0;
#X connect 11 0 9 1;
#X connect 12 0 13 0;
#X connect 14 0 24 0;
#X connect 15 0 14 0;
#X connect 16 0 18 0;
#X connect 17 0 18 1;
#X connect 17 0 21 0;
#X connect 18 0 15 0;
#X connect 24 0 22 0;
#X connect 24 0 22 1;
#X connect 25 0 11 0;
#X connect 26 0 25 0;
#X connect 27 0 0 0;
#X connect 28 0 26 0;
#X connect 31 0 25 1;
#X connect 32 0 33 0;
#X connect 33 0 34 1;
#X connect 35 0 33 0;
#X connect 36 0 12 0;
