#N canvas 82 176 1154 620 12;
#X obj 753 187 soundfiler;
#X floatatom 754 209 10 0 0 0 - - - 0;
#X obj 377 195 grain;
#X floatatom 376 160 5 0 0 0 - - - 0;
#X obj 365 81 tgl 19 0 empty empty empty 0 -10 0 12 #fcfcfc #000000 #000000 0 1;
#X floatatom 456 82 5 0 0 0 - - - 0;
#X obj 373 120 metro \$1;
#X text 492 82 duration in ms;
#X text 423 140 loop;
#X obj 510 138 send duration_ms;
#X obj 350 289 output~;
#X obj 739 120 array define a1;
#X msg 755 152 read -resize wav/sunsetendofoneworld.wav a1;
#X obj 361 233 tabread4~ a1;
#X connect 0 0 1 0;
#X connect 2 0 13 0;
#X connect 3 0 2 0;
#X connect 4 0 6 0;
#X connect 5 0 6 1;
#X connect 5 0 9 0;
#X connect 6 0 3 0;
#X connect 12 0 0 0;
#X connect 13 0 10 0;
#X connect 13 0 10 1;
