#N canvas 96 58 1344 781 12;
#X obj 377 88 soundfiler;
#X floatatom 433 116 10 0 0 0 - - - 0;
#X obj 27 35 tgl 19 0 empty empty empty 0 -10 0 12 #fcfcfc #000000 #000000 0 1;
#X floatatom 181 59 5 0 0 0 - - - 0;
#X obj 84 110 metro \$1;
#X text 217 59 duration in ms;
#X text 102 130 loop;
#X obj 361 31 array define a1;
#X obj 878 454 soundfiler;
#X floatatom 879 476 10 0 0 0 - - - 0;
#X obj 616 508 grain;
#X floatatom 615 473 5 0 0 0 - - - 0;
#X obj 607 392 tgl 19 0 empty empty empty 0 -10 0 12 #fcfcfc #000000 #000000 0 1;
#X floatatom 695 395 5 0 0 0 - - - 0;
#X obj 612 433 metro \$1;
#X text 731 395 duration in ms;
#X text 662 453 loop;
#X obj 749 451 send duration_ms;
#X obj 589 602 output~;
#X obj 864 387 array define a2;
#X obj 600 546 tabread4~ a2;
#X msg 880 419 read -resize wav/kashgarbangbang.wav a2;
#X msg 377 63 read -resize wav/monolithcold.wav a1;
#X obj 206 92 send duration_ms;
#X obj 488 172 samplerate~;
#X obj 362 185 expr $f2 / $f1;
#X obj 485 144 loadbang;
#X text 503 110 duration in samples;
#X text 436 222 coef for normal playback rate;
#X floatatom 361 213 10 0 0 0 - - - 0;
#X obj 560 145 bng 19 250 50 0 empty empty empty 0 -10 0 12 #fcfcfc #000000 #000000;
#X obj 70 409 grain;
#X floatatom 28 368 5 0 0 0 - - - 0;
#X obj 85 532 output~;
#X obj 96 476 tabread4~ a1;
#X obj 163 366 *~;
#X obj 159 314 phasor~;
#X floatatom 174 283 5 0 0 0 - - - 0;
#X obj 215 336 receive duration_samples;
#X text 72 369 start point;
#X obj 238 562 writesf~;
#X msg 327 503 start;
#X msg 382 529 stop;
#X msg 253 473 open output/test1.wav;
#X text 208 280 playback speed (non-normalized);
#X connect 0 0 1 0;
#X connect 0 0 25 0;
#X connect 2 0 4 0;
#X connect 2 0 36 0;
#X connect 3 0 23 0;
#X connect 3 0 4 1;
#X connect 4 0 31 0;
#X connect 8 0 9 0;
#X connect 10 0 20 0;
#X connect 11 0 10 0;
#X connect 12 0 14 0;
#X connect 13 0 14 1;
#X connect 13 0 17 0;
#X connect 14 0 11 0;
#X connect 20 0 18 0;
#X connect 20 0 18 1;
#X connect 21 0 8 0;
#X connect 22 0 0 0;
#X connect 24 0 25 1;
#X connect 25 0 29 0;
#X connect 26 0 24 0;
#X connect 30 0 24 0;
#X connect 31 0 34 0;
#X connect 32 0 31 0;
#X connect 34 0 33 0;
#X connect 34 0 33 1;
#X connect 34 0 40 0;
#X connect 35 0 34 0;
#X connect 36 0 35 0;
#X connect 37 0 36 0;
#X connect 38 0 35 1;
#X connect 41 0 40 0;
#X connect 42 0 40 0;
#X connect 43 0 40 0;
