#N canvas 274 37 1145 835 12;
#X obj 644 139 soundfiler;
#X floatatom 700 167 10 0 0 1 file\ duration\ in\ samples - - 0;
#X obj 171 59 tgl 19 0 empty empty empty 0 -10 0 12 #fcfcfc #000000 #000000 0 1;
#X floatatom 307 69 5 0 0 1 grain\ duration\ in\ ms - - 0;
#X obj 228 134 metro \$1;
#X text 246 154 loop;
#X obj 678 80 array define a1;
#X msg 644 114 read -resize wav/monolithcold.wav a1;
#X obj 350 116 send duration_ms;
#X obj 755 223 samplerate~;
#X obj 639 229 expr $f2 / $f1;
#X obj 752 195 loadbang;
#X floatatom 650 263 10 0 0 1 normal\ playback\ rate\ coef - - 0;
#X obj 725 196 bng 19 250 50 0 empty empty empty 0 -10 0 12 #fcfcfc #000000 #000000;
#X obj 217 278 grain;
#X floatatom 133 223 10 0 0 2 start\ point - - 0;
#X obj 278 711 output~;
#X obj 261 350 tabread4~ a1;
#X obj 276 283 *~;
#X obj 251 241 phasor~;
#X floatatom 367 213 10 0 0 2 playback\ rate\ (non-normalized) - - 0;
#X obj 309 255 receive duration_samples;
#X obj 462 719 writesf~;
#X msg 550 689 start;
#X msg 603 696 stop;
#X obj 255 441 hip~;
#X floatatom 354 394 10 0 0 2 high\ pass\ frequency - - 0;
#X obj 129 577 delread~ buffer;
#X floatatom 118 540 10 0 0 2 delay\ duration - - 0;
#X obj 272 471 delwrite~ buffer 5000;
#X floatatom 336 594 5 0 0 1 Q - - 0;
#X floatatom 359 545 10 0 0 1 low\ pass\ frequency - - 0;
#X obj 272 608 vcf~ 1;
#X obj 82 721 *~;
#X obj 76 778 send~ feedback;
#X obj 118 676 hsl 77 19 0 2 0 0 empty empty feedback\ amount\ 0-2 -2 -10 0 12 #fcfcfc #000000 #000000 0 1;
#X obj 301 443 receive~ feedback;
#X obj 734 376 soundfiler;
#X obj 783 313 array define a2;
#X msg 734 349 read -resize wav/brainscorcher.wav a2;
#X floatatom 734 402 10 0 0 0 - - - 0;
#X obj 121 355 tabplay~ a2;
#X obj 121 330 bng 19 250 50 0 empty empty empty 0 -10 0 12 #fcfcfc #000000 #000000;
#X obj 753 545 soundfiler;
#X floatatom 753 571 10 0 0 0 - - - 0;
#X obj 803 474 array define a3;
#X msg 753 518 read -resize wav/monolithholsterweapon.wav a3;
#X obj 258 389 phasemod;
#X msg 475 662 open output/test8.wav;
#X obj 78 751 clip~ -1 1;
#X obj 583 577 set;
#X obj 130 401 *~ 1.5;
#X obj 287 576 sig~ \$1;
#X obj 273 16 loadbang;
#X obj 602 85 loadbang;
#X obj 705 317 loadbang;
#X obj 709 471 loadbang;
#X msg 299 47 100;
#X obj 319 148 loadbang;
#X msg 330 176 0.005;
#X obj 301 498 loadbang;
#X msg 331 522 7777;
#X connect 0 0 1 0;
#X connect 0 0 10 0;
#X connect 2 0 19 0;
#X connect 2 0 4 0;
#X connect 3 0 8 0;
#X connect 3 0 4 1;
#X connect 4 0 14 0;
#X connect 7 0 0 0;
#X connect 9 0 10 1;
#X connect 10 0 12 0;
#X connect 11 0 9 0;
#X connect 13 0 9 0;
#X connect 14 0 17 0;
#X connect 15 0 14 0;
#X connect 17 0 47 0;
#X connect 18 0 17 0;
#X connect 19 0 18 0;
#X connect 20 0 19 0;
#X connect 21 0 18 1;
#X connect 23 0 22 0;
#X connect 24 0 22 0;
#X connect 25 0 29 0;
#X connect 25 0 32 0;
#X connect 26 0 25 1;
#X connect 27 0 16 0;
#X connect 27 0 16 1;
#X connect 27 0 22 0;
#X connect 27 0 33 0;
#X connect 28 0 27 0;
#X connect 30 0 32 2;
#X connect 31 0 52 0;
#X connect 32 0 16 1;
#X connect 32 0 16 0;
#X connect 32 1 16 1;
#X connect 32 1 16 0;
#X connect 32 1 22 0;
#X connect 33 0 49 0;
#X connect 35 0 33 1;
#X connect 36 0 29 0;
#X connect 37 0 40 0;
#X connect 39 0 37 0;
#X connect 41 0 51 0;
#X connect 42 0 41 0;
#X connect 43 0 44 0;
#X connect 46 0 43 0;
#X connect 47 0 25 0;
#X connect 48 0 22 0;
#X connect 49 0 34 0;
#X connect 51 0 25 0;
#X connect 52 0 32 1;
#X connect 53 0 57 0;
#X connect 54 0 7 0;
#X connect 55 0 39 0;
#X connect 56 0 46 0;
#X connect 57 0 3 0;
#X connect 58 0 59 0;
#X connect 59 0 20 0;
#X connect 60 0 61 0;
#X connect 61 0 31 0;
