#N canvas 377 135 1025 730 12;
#X obj 377 88 soundfiler;
#X floatatom 433 116 10 0 0 1 file\ duration\ in\ samples - - 0;
#X obj 27 35 tgl 19 0 empty empty empty 0 -10 0 12 #fcfcfc #000000 #000000 0 1;
#X floatatom 163 45 5 0 0 1 grain\ duration\ in\ ms - - 0;
#X obj 84 110 metro \$1;
#X text 102 130 loop;
#X obj 361 31 array define a1;
#X obj 1006 554 soundfiler;
#X floatatom 1007 576 10 0 0 0 - - - 0;
#X obj 744 608 grain;
#X floatatom 743 573 5 0 0 0 - - - 0;
#X obj 735 492 tgl 19 0 empty empty empty 0 -10 0 12 #fcfcfc #000000 #000000 0 1;
#X floatatom 823 495 5 0 0 0 - - - 0;
#X obj 740 533 metro \$1;
#X text 859 495 duration in ms;
#X text 790 553 loop;
#X obj 877 551 send duration_ms;
#X obj 717 702 output~;
#X obj 992 487 array define a2;
#X obj 728 646 tabread4~ a2;
#X msg 1008 519 read -resize wav/kashgarbangbang.wav a2;
#X msg 377 63 read -resize wav/monolithcold.wav a1;
#X obj 206 92 send duration_ms;
#X obj 488 172 samplerate~;
#X obj 362 185 expr $f2 / $f1;
#X obj 485 144 loadbang;
#X floatatom 373 219 10 0 0 1 normal\ playback\ rate\ coef - - 0;
#X obj 560 145 bng 19 250 50 0 empty empty empty 0 -10 0 12 #fcfcfc #000000 #000000;
#X obj 104 379 grain;
#X floatatom 44 291 5 0 0 2 start\ point - - 0;
#X obj 141 610 output~;
#X obj 130 446 tabread4~ a1;
#X obj 163 366 *~;
#X obj 159 314 phasor~;
#X floatatom 174 283 5 0 0 0 - - - 0;
#X obj 215 336 receive duration_samples;
#X obj 301 642 writesf~;
#X msg 390 583 start;
#X msg 448 588 stop;
#X text 208 280 playback speed (non-normalized);
#X obj 139 474 hip~;
#X floatatom 284 441 10 0 0 1 high\ pass\ frequency - - 0;
#X msg 315 556 open output/test2.wav;
#X obj 20 478 delread~ buffer;
#X floatatom 24 440 10 0 0 2 delay - - 0;
#X obj 194 499 delwrite~ buffer 10000;
#X connect 0 0 1 0;
#X connect 0 0 24 0;
#X connect 2 0 4 0;
#X connect 2 0 33 0;
#X connect 3 0 22 0;
#X connect 3 0 4 1;
#X connect 4 0 28 0;
#X connect 7 0 8 0;
#X connect 9 0 19 0;
#X connect 10 0 9 0;
#X connect 11 0 13 0;
#X connect 12 0 13 1;
#X connect 12 0 16 0;
#X connect 13 0 10 0;
#X connect 19 0 17 0;
#X connect 19 0 17 1;
#X connect 20 0 7 0;
#X connect 21 0 0 0;
#X connect 23 0 24 1;
#X connect 24 0 26 0;
#X connect 25 0 23 0;
#X connect 27 0 23 0;
#X connect 28 0 31 0;
#X connect 29 0 28 0;
#X connect 31 0 40 0;
#X connect 32 0 31 0;
#X connect 33 0 32 0;
#X connect 34 0 33 0;
#X connect 35 0 32 1;
#X connect 37 0 36 0;
#X connect 38 0 36 0;
#X connect 40 0 30 0;
#X connect 40 0 30 1;
#X connect 40 0 36 0;
#X connect 40 0 45 0;
#X connect 41 0 40 1;
#X connect 42 0 36 0;
#X connect 43 0 30 0;
#X connect 43 0 30 1;
#X connect 44 0 43 0;
