#N canvas 125 259 599 531 12;
#X obj 145 319 +~;
#X obj 144 352 cos~;
#X floatatom 256 109 5 0 0 0 - - - 0;
#X obj 245 201 +~;
#X obj 244 234 cos~;
#X floatatom 380 40 5 0 0 0 - - - 0;
#X obj 353 116 +~;
#X obj 349 157 cos~;
#X obj 144 438 outlet~;
#X obj 248 155 phasor~;
#X obj 359 78 phasor~;
#X obj 116 226 inlet~;
#X obj 289 261 hsl 130 19 0 10 0 0 empty empty empty -2 -10 0 12 #fcfcfc #000000 #000000 0 1;
#X obj 426 164 hsl 130 19 0 10 0 0 empty empty empty -2 -10 0 12 #fcfcfc #000000 #000000 0 1;
#X obj 311 298 print;
#X obj 402 203 print;
#X obj 140 393 *~ 0.5;
#X obj 231 288 *~;
#X obj 334 191 *~;
#X connect 0 0 1 0;
#X connect 1 0 16 0;
#X connect 2 0 9 0;
#X connect 3 0 4 0;
#X connect 4 0 17 0;
#X connect 5 0 10 0;
#X connect 6 0 7 0;
#X connect 7 0 18 0;
#X connect 9 0 3 0;
#X connect 10 0 6 0;
#X connect 11 0 0 0;
#X connect 12 0 14 0;
#X connect 12 0 17 1;
#X connect 13 0 15 0;
#X connect 13 0 18 1;
#X connect 16 0 8 0;
#X connect 17 0 0 1;
#X connect 18 0 3 1;
