#N canvas 150 175 948 651 12;
#X obj 272 658 output~;
#X obj 282 668 output~;
#X obj 292 678 output~;
#X floatatom 267 299 5 0 0 0 - - - 0;
#X obj 334 420 +~;
#X obj 333 453 cos~;
#X floatatom 450 209 5 0 0 0 - - - 0;
#X obj 434 302 +~;
#X obj 433 335 cos~;
#X floatatom 569 140 5 0 0 0 - - - 0;
#X obj 542 217 +~;
#X obj 538 258 cos~;
#X floatatom 471 366 5 0 0 0 - - - 0;
#X floatatom 585 275 5 0 0 0 - - - 0;
#X obj 329 502 *~ 0.5;
#X obj 523 292 *~ 2.5;
#X obj 420 389 *~ 0.1;
#X obj 359 46 inlet;
#X obj 352 101 unpack \$1 \$2 \$3;
#X obj 329 563 outlet~;
#X obj 447 560 output~;
#X obj 304 365 phasor~;
#X obj 437 256 phasor~;
#X obj 548 179 phasor~;
#X connect 3 0 21 0;
#X connect 4 0 5 0;
#X connect 5 0 14 0;
#X connect 6 0 22 0;
#X connect 7 0 8 0;
#X connect 8 0 16 0;
#X connect 9 0 23 0;
#X connect 10 0 11 0;
#X connect 11 0 15 0;
#X connect 12 0 16 1;
#X connect 13 0 15 1;
#X connect 14 0 19 0;
#X connect 15 0 7 1;
#X connect 16 0 4 1;
#X connect 17 0 18 0;
#X connect 18 0 21 0;
#X connect 18 1 22 0;
#X connect 18 2 23 0;
#X connect 21 0 4 0;
#X connect 22 0 7 0;
#X connect 23 0 10 0;
